<svg id="visual" viewBox="0 0 960 540" width="960" height="540" xmlns="http://www.w3.org/2000/svg" xmlns:xlink="http://www.w3.org/1999/xlink" version="1.1"><rect x="0" y="0" width="960" height="540" fill="#ffffff"></rect><path d="M0 339L17.8 328.8C35.7 318.7 71.3 298.3 106.8 287.3C142.3 276.3 177.7 274.7 213.2 280.3C248.7 286 284.3 299 320 308.5C355.7 318 391.3 324 426.8 319.5C462.3 315 497.7 300 533.2 295.7C568.7 291.3 604.3 297.7 640 306.2C675.7 314.7 711.3 325.3 746.8 324.8C782.3 324.3 817.7 312.7 853.2 302.8C888.7 293 924.3 285 942.2 281L960 277L960 541L942.2 541C924.3 541 888.7 541 853.2 541C817.7 541 782.3 541 746.8 541C711.3 541 675.7 541 640 541C604.3 541 568.7 541 533.2 541C497.7 541 462.3 541 426.8 541C391.3 541 355.7 541 320 541C284.3 541 248.7 541 213.2 541C177.7 541 142.3 541 106.8 541C71.3 541 35.7 541 17.8 541L0 541Z" fill="#c9281c"></path><path d="M0 318L17.8 318.5C35.7 319 71.3 320 106.8 325C142.3 330 177.7 339 213.2 339.7C248.7 340.3 284.3 332.7 320 331C355.7 329.3 391.3 333.7 426.8 337.8C462.3 342 497.7 346 533.2 350.8C568.7 355.7 604.3 361.3 640 363.8C675.7 366.3 711.3 365.7 746.8 369.7C782.3 373.7 817.7 382.3 853.2 374C888.7 365.7 924.3 340.3 942.2 327.7L960 315L960 541L942.2 541C924.3 541 888.7 541 853.2 541C817.7 541 782.3 541 746.8 541C711.3 541 675.7 541 640 541C604.3 541 568.7 541 533.2 541C497.7 541 462.3 541 426.8 541C391.3 541 355.7 541 320 541C284.3 541 248.7 541 213.2 541C177.7 541 142.3 541 106.8 541C71.3 541 35.7 541 17.8 541L0 541Z" fill="#cd203f"></path><path d="M0 376L17.8 377.3C35.7 378.7 71.3 381.3 106.8 383.2C142.3 385 177.7 386 213.2 382.8C248.7 379.7 284.3 372.3 320 373.7C355.7 375 391.3 385 426.8 385.5C462.3 386 497.7 377 533.2 374.8C568.7 372.7 604.3 377.3 640 382.3C675.7 387.3 711.3 392.7 746.8 399.7C782.3 406.7 817.7 415.3 853.2 421C888.7 426.7 924.3 429.3 942.2 430.7L960 432L960 541L942.2 541C924.3 541 888.7 541 853.2 541C817.7 541 782.3 541 746.8 541C711.3 541 675.7 541 640 541C604.3 541 568.7 541 533.2 541C497.7 541 462.3 541 426.8 541C391.3 541 355.7 541 320 541C284.3 541 248.7 541 213.2 541C177.7 541 142.3 541 106.8 541C71.3 541 35.7 541 17.8 541L0 541Z" fill="#c9275d"></path><path d="M0 415L17.8 424.2C35.7 433.3 71.3 451.7 106.8 456.8C142.3 462 177.7 454 213.2 446.7C248.7 439.3 284.3 432.7 320 430.7C355.7 428.7 391.3 431.3 426.8 434.7C462.3 438 497.7 442 533.2 444.3C568.7 446.7 604.3 447.3 640 445.8C675.7 444.3 711.3 440.7 746.8 434.5C782.3 428.3 817.7 419.7 853.2 423.7C888.7 427.7 924.3 444.3 942.2 452.7L960 461L960 541L942.2 541C924.3 541 888.7 541 853.2 541C817.7 541 782.3 541 746.8 541C711.3 541 675.7 541 640 541C604.3 541 568.7 541 533.2 541C497.7 541 462.3 541 426.8 541C391.3 541 355.7 541 320 541C284.3 541 248.7 541 213.2 541C177.7 541 142.3 541 106.8 541C71.3 541 35.7 541 17.8 541L0 541Z" fill="#be3777"></path><path d="M0 503L17.8 496.7C35.7 490.3 71.3 477.7 106.8 471.3C142.3 465 177.7 465 213.2 467.2C248.7 469.3 284.3 473.7 320 475.7C355.7 477.7 391.3 477.3 426.8 475.5C462.3 473.7 497.7 470.3 533.2 467.3C568.7 464.3 604.3 461.7 640 462.7C675.7 463.7 711.3 468.3 746.8 477C782.3 485.7 817.7 498.3 853.2 498.5C888.7 498.7 924.3 486.3 942.2 480.2L960 474L960 541L942.2 541C924.3 541 888.7 541 853.2 541C817.7 541 782.3 541 746.8 541C711.3 541 675.7 541 640 541C604.3 541 568.7 541 533.2 541C497.7 541 462.3 541 426.8 541C391.3 541 355.7 541 320 541C284.3 541 248.7 541 213.2 541C177.7 541 142.3 541 106.8 541C71.3 541 35.7 541 17.8 541L0 541Z" fill="#ae478c"></path></svg>